<svg width="18" height="14" viewBox="0 0 18 14" fill="none" xmlns="http://www.w3.org/2000/svg">
<path d="M17.3334 1.83333C16.707 2.10507 16.0445 2.28471 15.3667 2.36666C16.0818 1.93943 16.6177 1.26731 16.875 0.474992C16.203 0.875044 15.4673 1.15691 14.7 1.30832C14.1871 0.752135 13.5042 0.381905 12.7582 0.255701C12.0122 0.129497 11.2455 0.254457 10.5782 0.610983C9.91088 0.967509 9.3808 1.53543 9.07105 2.22569C8.76131 2.91594 8.68943 3.68948 8.86669 4.42499C7.50788 4.35626 6.17872 4.00245 4.96557 3.38654C3.75241 2.77063 2.68239 1.9064 1.82502 0.849991C1.5243 1.37513 1.36629 1.96984 1.36669 2.57499C1.36562 3.13698 1.50353 3.69051 1.76815 4.1863C2.03276 4.68209 2.41587 5.10475 2.88335 5.41666C2.34 5.40187 1.80826 5.25607 1.33335 4.99166V5.03332C1.33743 5.82073 1.61335 6.58257 2.11445 7.18996C2.61555 7.79736 3.31107 8.21303 4.08335 8.36666C3.78607 8.45713 3.47742 8.50483 3.16669 8.50833C2.9516 8.50581 2.73704 8.48631 2.52502 8.44999C2.74495 9.12733 3.17054 9.71928 3.74258 10.1435C4.31463 10.5676 5.00467 10.803 5.71669 10.8167C4.51436 11.7627 3.02992 12.279 1.50002 12.2833C1.22147 12.2842 0.943133 12.2675 0.666687 12.2333C2.22871 13.2419 4.04903 13.7773 5.90835 13.775C7.19143 13.7883 8.4643 13.5458 9.65262 13.0617C10.8409 12.5776 11.9209 11.8616 12.8294 10.9554C13.7378 10.0492 14.4567 8.97115 14.9438 7.78408C15.431 6.59701 15.6767 5.32476 15.6667 4.04166C15.6667 3.89999 15.6667 3.74999 15.6667 3.59999C16.3206 3.11233 16.8846 2.51451 17.3334 1.83333Z" fill="black"/>
</svg>
